<svg xmlns="http://www.w3.org/2000/svg" viewBox="0 0 1200 800">
  <!-- Fondo general -->
  <rect width="1200" height="800" fill="#f5f7f9"/>
  
  <!-- Elementos gráficos de fondo -->
  <circle cx="1100" cy="700" r="250" fill="#e3eae6" opacity="0.5"/>
  <circle cx="100" cy="100" r="180" fill="#d3e0d8" opacity="0.4"/>
  
  <!-- Líneas decorativas -->
  <g stroke="#3b78c3" stroke-width="1" opacity="0.15">
    <line x1="920" y1="0" x2="1200" y2="280" />
    <line x1="950" y1="0" x2="1200" y2="250" />
    <line x1="980" y1="0" x2="1200" y2="220" />
    <line x1="1010" y1="0" x2="1200" y2="190" />
    <line x1="1040" y1="0" x2="1200" y2="160" />
    <line x1="1070" y1="0" x2="1200" y2="130" />
    <line x1="1100" y1="0" x2="1200" y2="100" />
    <line x1="1130" y1="0" x2="1200" y2="70" />
    <line x1="1160" y1="0" x2="1200" y2="40" />
  </g>
  
  <!-- Barra superior -->
  <rect width="1200" height="70" fill="#ffffff" stroke="#e0e0e0" stroke-width="1"/>
  
  <!-- Logo de la brújula -->
  <g transform="translate(50, 35)">
    <!-- Círculo exterior -->
    <circle cx="0" cy="0" r="22" fill="#e9efe2" stroke="#9a8f8f" stroke-width="2"/>
    
    <!-- Puntas de la brújula -->
    <path d="M0,-26 L3,-21 L0,-19 L-3,-21 Z" fill="#666666" transform="rotate(0)"/>
    <path d="M0,-26 L3,-21 L0,-19 L-3,-21 Z" fill="#666666" transform="rotate(90)"/>
    <path d="M0,-26 L3,-21 L0,-19 L-3,-21 Z" fill="#666666" transform="rotate(180)"/>
    <path d="M0,-26 L3,-21 L0,-19 L-3,-21 Z" fill="#666666" transform="rotate(270)"/>
    
    <!-- Aguja -->
    <path d="M0,-17 L5,0 L0,17 L-5,0 Z" fill="#3b78c3" transform="rotate(-45)"/>
    
    <!-- Punto central -->
    <circle cx="0" cy="0" r="3" fill="#d16565"/>
  </g>
  
  <text x="90" y="40" font-family="Arial, sans-serif" font-size="20" font-weight="600" letter-spacing="0.5" fill="#333333">ESG Digital Tool</text>
  
  <!-- Barra de búsqueda -->
  <rect x="350" y="20" width="300" height="30" fill="#f5f5f5" stroke="#dddddd" stroke-width="1" rx="15" ry="15"/>
  <text x="370" y="40" font-family="Arial, sans-serif" font-size="12" fill="#999999">Buscar en la plataforma...</text>
  <circle cx="630" cy="35" r="8" fill="none" stroke="#999999" stroke-width="1.5"/>
  <line x1="636" y1="41" x2="645" y2="50" stroke="#999999" stroke-width="1.5"/>
  
  <!-- Iconos parte superior derecha -->
  <!-- Chat (icono de chatbot) -->
  <g transform="translate(735, 35)">
    <circle cx="0" cy="0" r="15" fill="#129953"/>
    <circle cx="-5" cy="0" r="2" fill="white"/>
    <circle cx="0" cy="0" r="2" fill="white"/>
    <circle cx="5" cy="0" r="2" fill="white"/>
  </g>
  
  <!-- Configuración -->
  <g transform="translate(780, 35)">
    <circle cx="0" cy="0" r="15" fill="#f5f5f5" stroke="#dddddd" stroke-width="1"/>
    <rect x="-7" y="-7" width="14" height="14" rx="2" ry="2" fill="none" stroke="#888888" stroke-width="1.5"/>
    <line x1="-4" y1="-2" x2="4" y2="-2" stroke="#888888" stroke-width="1.5"/>
    <line x1="-4" y1="2" x2="4" y2="2" stroke="#888888" stroke-width="1.5"/>
    <circle cx="-4" cy="-2" r="1.5" fill="#888888"/>
    <circle cx="4" cy="2" r="1.5" fill="#888888"/>
  </g>
  
  <!-- Historial -->
  <g transform="translate(825, 35)">
    <circle cx="0" cy="0" r="15" fill="#f5f5f5" stroke="#dddddd" stroke-width="1"/>
    <path d="M0,-7 L0,0 L5,5" stroke="#888888" stroke-width="1.5" fill="none"/>
    <circle cx="0" cy="0" r="7" stroke="#888888" stroke-width="1.5" fill="none"/>
  </g>
  
  <!-- Notificaciones -->
  <g transform="translate(870, 35)">
    <circle cx="0" cy="0" r="15" fill="#f5f5f5" stroke="#dddddd" stroke-width="1"/>
    <path d="M0,-7 L0,-2 M-6,5 L6,5 M-4,-5 C-4,-5 -7,0 -7,5 C-7,5 -7,5 -6,5 M4,-5 C4,-5 7,0 7,5 C7,5 7,5 6,5" stroke="#888888" stroke-width="1.5" fill="none"/>
    <circle cx="0" cy="8" r="2" fill="#888888"/>
    <circle cx="8" cy="-8" r="8" fill="#d16565"/>
    <text x="8" y="-5" font-family="Arial, sans-serif" font-size="10" font-weight="bold" fill="#ffffff" text-anchor="middle">3</text>
  </g>
  
  <!-- Ayuda -->
  <g transform="translate(915, 35)">
    <circle cx="0" cy="0" r="15" fill="#2196f3"/>
    <text x="0" y="5" font-family="Arial, sans-serif" font-size="18" font-weight="bold" fill="#ffffff" text-anchor="middle">?</text>
  </g>

  <!-- Usuario -->
  <g transform="translate(960, 35)">
    <circle cx="0" cy="0" r="15" fill="#f2f2f2" stroke="#dddddd" stroke-width="1"/>
    <text x="30" y="5" font-family="Arial, sans-serif" font-size="12" fill="#333333">Usuario X</text>
    <circle cx="-2" cy="-2" r="7" fill="#6c7680"/>
    <path d="M-2,5 C-8,5 -12,10 -12,15 C-8,13 4,13 8,15 C8,10 4,5 -2,5" fill="#6c7680" transform="scale(0.6)"/>
  </g>
  
  <!-- Selector de centro/unidad de negocio -->
  <rect x="1050" y="20" width="130" height="30" fill="#f5f5f5" stroke="#dddddd" stroke-width="1" rx="5" ry="5"/>
  <text x="1070" y="40" font-family="Arial, sans-serif" font-size="12" fill="#333333">Empresa S.A.</text>
  <polygon points="1160,35 1150,30 1170,30" fill="#666666" transform="scale(0.6) translate(810, 20)"/>
  
  <!-- Menú lateral -->
  <rect x="0" y="70" width="200" height="730" fill="#ffffff" stroke="#e0e0e0" stroke-width="1"/>
  
  <!-- Módulo 1 (activo) -->
  <rect x="0" y="70" width="200" height="50" fill="#3b78c3" opacity="0.8"/>
  <text x="20" y="100" font-family="Arial, sans-serif" font-size="13" font-weight="400" fill="#ffffff">1. Datos Base</text>
  <polygon points="180,100 170,95 190,95" fill="#ffffff" transform="rotate(90, 180, 100)"/>
  
  <!-- Submódulos del Módulo 1 desplegados -->
  <rect x="0" y="120" width="200" height="40" fill="#ffffff"/>
  <text x="35" y="145" font-family="Arial, sans-serif" font-size="11" fill="#666666">► Requisitos Aplicables</text>
  
  <rect x="0" y="160" width="200" height="40" fill="#ebf2fa"/>
  <text x="35" y="185" font-family="Arial, sans-serif" font-size="11" font-weight="600" fill="#3b78c3">► Cadena de Valor</text>
  
  <!-- Otros módulos -->
  <rect x="0" y="200" width="200" height="50" fill="#ffffff"/>
  <text x="20" y="230" font-family="Arial, sans-serif" font-size="13" font-weight="400" fill="#666666">2. Datos GGII</text>
  <polygon points="180,230 170,225 190,225" fill="#666666" transform="rotate(270, 180, 230)"/>
  
  <rect x="0" y="250" width="200" height="50" fill="#ffffff"/>
  <text x="20" y="280" font-family="Arial, sans-serif" font-size="13" font-weight="400" fill="#666666">3. Integración Externa</text>
  <polygon points="180,280 170,275 190,275" fill="#666666" transform="rotate(270, 180, 280)"/>
  
  <rect x="0" y="300" width="200" height="50" fill="#ffffff"/>
  <text x="20" y="330" font-family="Arial, sans-serif" font-size="13" font-weight="400" fill="#666666">4. Análisis DM</text>
  <polygon points="180,330 170,325 190,325" fill="#666666" transform="rotate(270, 180, 330)"/>
  
  <rect x="0" y="350" width="200" height="50" fill="#ffffff"/>
  <text x="20" y="380" font-family="Arial, sans-serif" font-size="13" font-weight="400" fill="#666666">5. Datapoints</text>
  <polygon points="180,380 170,375 190,375" fill="#666666" transform="rotate(270, 180, 380)"/>
  
  <rect x="0" y="400" width="200" height="50" fill="#ffffff"/>
  <text x="20" y="430" font-family="Arial, sans-serif" font-size="13" font-weight="400" fill="#666666">6. Reporting</text>
  <polygon points="180,430 170,425 190,425" fill="#666666" transform="rotate(270, 180, 430)"/>
  
  <!-- Panel lateral de actividad reciente -->
  <rect x="0" y="690" width="200" height="110" fill="#f0f0f0"/>
  <text x="15" y="715" font-family="Arial, sans-serif" font-size="11" font-weight="600" fill="#666666">ACTIVIDAD RECIENTE</text>
  <line x1="15" y1="725" x2="185" y2="725" stroke="#dddddd" stroke-width="1"/>
  <text x="15" y="745" font-family="Arial, sans-serif" font-size="9" fill="#666666">M1_I01 completado - Hace 30m</text>
  <text x="15" y="765" font-family="Arial, sans-serif" font-size="9" fill="#666666">M1_I02 completado - Hace 15m</text>
  <text x="15" y="785" font-family="Arial, sans-serif" font-size="9" fill="#666666">M1_I03 completado - Hace 5m</text>
  
  <!-- Contenido principal con margen uniforme -->
  <rect x="200" y="70" width="1000" height="700" fill="#ffffff"/>
  
  <!-- Contenedor principal del contenido -->
  <rect x="220" y="80" width="960" height="680" fill="#ffffff" stroke="#e0e0e0" stroke-width="1" rx="8" ry="8"/>
  
  <!-- Título del módulo con estilo moderno -->
  <rect x="220" y="80" width="960" height="50" fill="#3b78c3" opacity="0.1"/>
  <text x="270" y="115" font-family="Arial, sans-serif" font-size="18" font-weight="600" letter-spacing="0.5" fill="#333333">Módulo 1: Datos Base</text>
  
  <!-- Pestañas de navegación horizontal -->
  <rect x="220" y="130" width="960" height="35" fill="#f9f9f9" stroke="#e0e0e0" stroke-width="1"/>
  
  <!-- Pestañas principales -->
  <rect x="220" y="130" width="480" height="35" fill="#ffffff"/>
  <text x="340" y="153" font-family="Arial, sans-serif" font-size="13" font-weight="400" fill="#666666" text-anchor="middle">REQUISITOS APLICABLES</text>
  
  <!-- Botón Dashboards -->
  <rect x="480" y="130" width="240" height="35" fill="#3b78c3" opacity="0.1"/>
  <text x="600" y="153" font-family="Arial, sans-serif" font-size="13" font-weight="600" fill="#3b78c3" text-anchor="middle">CADENA DE VALOR</text>
  
  <!-- Submenu de fases -->
  <rect x="220" y="165" width="960" height="30" fill="#f5f8ff" stroke="#e0e0e0" stroke-width="1"/>
  
  <!-- Fase 1 activa -->
  <rect x="220" y="165" width="240" height="30" fill="#3b78c3" opacity="0.2"/>
  <text x="340" y="185" font-family="Arial, sans-serif" font-size="11" font-weight="600" fill="#3b78c3" text-anchor="middle">FASE 1</text>
  
  <!-- Fase 2 inactiva -->
  <text x="580" y="185" font-family="Arial, sans-serif" font-size="11" fill="#666666" text-anchor="middle">FASE 2</text>
  
  <!-- Fase 3 inactiva -->
  <text x="820" y="185" font-family="Arial, sans-serif" font-size="11" fill="#666666" text-anchor="middle">FASE 3</text>
  
  <!-- Fase 4 inactiva -->
  <text x="1060" y="185" font-family="Arial, sans-serif" font-size="11" fill="#666666" text-anchor="middle">FASE 4</text>
  
  <!-- Indicador de fase -->
  <rect x="240" y="205" width="920" height="35" fill="#f0f7ff" stroke="#d0e3ff" stroke-width="1" rx="8" ry="8"/>
  <text x="270" y="228" font-family="Arial, sans-serif" font-size="12" font-weight="600" fill="#3b78c3">Fase 1: Identificación Inicial de la Cadena de Valor</text>
  
  <!-- Panel informativo de la sección -->
  <rect x="240" y="250" width="920" height="60" fill="#ffffff" stroke="#e0e0e0" stroke-width="1" rx="5" ry="5"/>
  <text x="270" y="273" font-family="Arial, sans-serif" font-size="11" font-weight="600" fill="#333333">Formulario de Mapa de Cobertura de la CV (M1_I04): </text>
  <text x="545" y="273" font-family="Arial, sans-serif" font-size="11" fill="#555555">Permite definir qué partes de la CV se analizarán en la doble materialidad.</text>
  <text x="270" y="298" font-family="Arial, sans-serif" font-size="9" fill="#555555">Defina qué áreas de la cadena de valor se incluirán en el análisis de doble materialidad. Es necesario justificar la exclusión de cualquier área.</text>
  
  <!-- Contenedor del formulario (con scroll) -->
  <rect x="240" y="320" width="920" height="350" fill="#ffffff" stroke="#e0e0e0" stroke-width="1" rx="5" ry="5"/>
  <!-- Indicador de scroll - posición inferior -->
  <rect x="1145" y="340" width="5" height="310" rx="2" ry="2" fill="#dddddd"/>
  <rect x="1145" y="610" width="5" height="40" rx="2" ry="2" fill="#aaaaaa"/>
  
  <!-- Muestra solo la parte inferior del scroll (sección 2 de la interfaz) -->
  <rect x="270" y="340" width="860" height="35" fill="#ebf2fa" stroke="#d0e3ff" stroke-width="1" rx="4" ry="4"/>
  <text x="300" y="363" font-family="Arial, sans-serif" font-size="12" font-weight="600" fill="#3b78c3">2. NIVEL DE DETALLE DEL ANÁLISIS</text>
  
  <!-- Opciones de nivel de detalle -->
  <rect x="290" y="390" width="18" height="18" fill="#ffffff" stroke="#3b78c3" stroke-width="2" rx="2" ry="2"/>
  <rect x="292" y="392" width="14" height="14" fill="#3b78c3" rx="1" ry="1"/>
  <text x="320" y="403" font-family="Arial, sans-serif" font-size="10" fill="#333333">Análisis individual (cada proveedor/cliente por separado)</text>
  
  <rect x="590" y="390" width="18" height="18" fill="#ffffff" stroke="#3b78c3" stroke-width="2" rx="2" ry="2"/>
  <text x="620" y="403" font-family="Arial, sans-serif" font-size="10" fill="#333333">Análisis por grupos (agrupación de proveedores/clientes similares)</text>
  
  <!-- Sección 3: Documentación de respaldo -->
  <rect x="270" y="435" width="860" height="35" fill="#ebf2fa" stroke="#d0e3ff" stroke-width="1" rx="4" ry="4"/>
  <text x="300" y="458" font-family="Arial, sans-serif" font-size="12" font-weight="600" fill="#3b78c3">3. DOCUMENTACIÓN DE RESPALDO</text>
  
  <!-- Campo para subir documentos -->
  <rect x="290" y="485" width="820" height="50" fill="#f9f9f9" stroke="#cccccc" stroke-width="1" stroke-dasharray="5,3" rx="5" ry="5"/>
  <text x="700" y="515" font-family="Arial, sans-serif" font-size="11" fill="#666666" text-anchor="middle">Arrastre archivos aquí o haga clic para adjuntar documentación que respalde las decisiones</text>
  <circle cx="1070" cy="510" r="15" fill="#f1f1f1" stroke="#dddddd" stroke-width="1"/>
  <text x="1070" y="515" font-family="Arial, sans-serif" font-size="18" fill="#3b78c3" text-anchor="middle">+</text>
  
  <!-- Sección 4: Dimensiones ESG cubiertas -->
  <rect x="270" y="550" width="860" height="35" fill="#ebf2fa" stroke="#d0e3ff" stroke-width="1" rx="4" ry="4"/>
  <text x="300" y="573" font-family="Arial, sans-serif" font-size="12" font-weight="600" fill="#3b78c3">4. DIMENSIONES ESG CUBIERTAS</text>
  
  <!-- Opciones de dimensiones ESG -->
  <rect x="290" y="600" width="18" height="18" fill="#ffffff" stroke="#3b78c3" stroke-width="2" rx="2" ry="2"/>
  <rect x="292" y="602" width="14" height="14" fill="#3b78c3" rx="1" ry="1"/>
  <text x="320" y="613" font-family="Arial, sans-serif" font-size="10" fill="#333333">Ambiental</text>
  
  <rect x="430" y="600" width="18" height="18" fill="#ffffff" stroke="#3b78c3" stroke-width="2" rx="2" ry="2"/>
  <rect x="432" y="602" width="14" height="14" fill="#3b78c3" rx="1" ry="1"/>
  <text x="460" y="613" font-family="Arial, sans-serif" font-size="10" fill="#333333">Social</text>
  
  <rect x="570" y="600" width="18" height="18" fill="#ffffff" stroke="#3b78c3" stroke-width="2" rx="2" ry="2"/>
  <rect x="572" y="602" width="14" height="14" fill="#3b78c3" rx="1" ry="1"/>
  <text x="600" y="613" font-family="Arial, sans-serif" font-size="10" fill="#333333">Gobernanza</text>
  
  <!-- Panel informativo con sistema progreso -->
  <rect x="240" y="680" width="920" height="40" fill="#f5f8ff" stroke="#e0e0e0" stroke-width="1" rx="5" ry="5"/>
  <circle cx="265" cy="700" r="9" fill="#3b78c3"/>
  <text x="265" y="704" font-family="Arial, sans-serif" font-size="12" font-weight="bold" fill="#ffffff" text-anchor="middle">i</text>
  <text x="285" y="704" font-family="Arial, sans-serif" font-size="9" fill="#555555">EFRAG IG 2 exige que toda relación comercial o indirecta potencialmente material sea considerada. Si se excluye, debe justificarse con evidencias.</text>
  
  <!-- Botones de navegación -->
  <rect x="240" y="730" width="920" height="40" fill="#f5f5f5" stroke="#dddddd" stroke-width="1" rx="5" ry="5"/>
  
  <!-- Botones alineados -->
  <rect x="350" y="737" width="100" height="25" fill="#F5CB57" stroke="#F5CB57" stroke-width="1" rx="4" ry="4"/>
  <text x="400" y="753" font-family="Arial, sans-serif" font-size="11" fill="#333333" text-anchor="middle">Anterior</text>
  
  <rect x="470" y="737" width="100" height="25" fill="#129953" stroke="#129953" stroke-width="1" rx="4" ry="4"/>
  <text x="520" y="753" font-family="Arial, sans-serif" font-size="11" fill="#ffffff" text-anchor="middle">Guardar</text>
  
  <rect x="820" y="737" width="180" height="25" fill="#3b78c3" rx="4" ry="4"/>
  <text x="910" y="753" font-family="Arial, sans-serif" font-size="11" fill="#ffffff" font-weight="500" text-anchor="middle">Siguiente (Mapa de Cobertura)</text>
  
  <!-- Pie de página -->
  <rect x="0" y="770" width="1200" height="30" fill="#f5f5f5"/>
  <text x="50" y="790" font-family="Arial, sans-serif" font-size="9" fill="#666666">© 2025 ESG Digital Tool | Términos de uso | Privacidad | Contacto</text>
  <text x="1150" y="790" font-family="Arial, sans-serif" font-size="9" fill="#666666" text-anchor="end">Versión 1.2.4</text>
</svg>
