<svg xmlns="http://www.w3.org/2000/svg" viewBox="0 0 1200 800">
  <!-- Fondo general -->
  <rect width="1200" height="800" fill="#f5f7f9"/>
  
  <!-- Elementos gráficos de fondo -->
  <circle cx="1100" cy="700" r="250" fill="#fff9e6" opacity="0.5"/>
  <circle cx="100" cy="100" r="180" fill="#fffadc" opacity="0.4"/>
  
  <!-- Líneas decorativas -->
  <g stroke="#F5CB57" stroke-width="1" opacity="0.15">
    <line x1="920" y1="0" x2="1200" y2="280" />
    <line x1="950" y1="0" x2="1200" y2="250" />
    <line x1="980" y1="0" x2="1200" y2="220" />
    <line x1="1010" y1="0" x2="1200" y2="190" />
    <line x1="1040" y1="0" x2="1200" y2="160" />
    <line x1="1070" y1="0" x2="1200" y2="130" />
    <line x1="1100" y1="0" x2="1200" y2="100" />
    <line x1="1130" y1="0" x2="1200" y2="70" />
    <line x1="1160" y1="0" x2="1200" y2="40" />
  </g>
  
  <!-- Barra superior -->
  <rect width="1200" height="70" fill="#ffffff" stroke="#e0e0e0" stroke-width="1"/>
  
  <!-- Logo de la brújula -->
  <g transform="translate(50, 35)">
    <!-- Círculo exterior -->
    <circle cx="0" cy="0" r="22" fill="#fffadc" stroke="#9a8f8f" stroke-width="2"/>
    
    <!-- Puntas de la brújula -->
    <path d="M0,-26 L3,-21 L0,-19 L-3,-21 Z" fill="#666666" transform="rotate(0)"/>
    <path d="M0,-26 L3,-21 L0,-19 L-3,-21 Z" fill="#666666" transform="rotate(90)"/>
    <path d="M0,-26 L3,-21 L0,-19 L-3,-21 Z" fill="#666666" transform="rotate(180)"/>
    <path d="M0,-26 L3,-21 L0,-19 L-3,-21 Z" fill="#666666" transform="rotate(270)"/>
    
    <!-- Aguja -->
    <path d="M0,-17 L5,0 L0,17 L-5,0 Z" fill="#F5CB57" transform="rotate(-45)"/>
    
    <!-- Punto central -->
    <circle cx="0" cy="0" r="3" fill="#F5CB57"/>
  </g>
  
  <text x="90" y="40" font-family="Arial, sans-serif" font-size="20" font-weight="600" letter-spacing="0.5" fill="#333333">ESG Digital Tool</text>
  
  <!-- Barra de búsqueda -->
  <rect x="350" y="20" width="300" height="30" fill="#f5f5f5" stroke="#dddddd" stroke-width="1" rx="15" ry="15"/>
  <text x="370" y="40" font-family="Arial, sans-serif" font-size="12" fill="#999999">Buscar en la plataforma...</text>
  <circle cx="630" cy="35" r="8" fill="none" stroke="#999999" stroke-width="1.5"/>
  <line x1="636" y1="41" x2="645" y2="50" stroke="#999999" stroke-width="1.5"/>
  
  <!-- Iconos parte superior derecha -->
  <!-- Chat -->
  <g transform="translate(735, 35)">
    <circle cx="0" cy="0" r="15" fill="#129953"/>
    <circle cx="-5" cy="0" r="2" fill="white"/>
    <circle cx="0" cy="0" r="2" fill="white"/>
    <circle cx="5" cy="0" r="2" fill="white"/>
  </g>
  
  <!-- Configuración -->
  <g transform="translate(780, 35)">
    <circle cx="0" cy="0" r="15" fill="#f5f5f5" stroke="#dddddd" stroke-width="1"/>
    <rect x="-7" y="-7" width="14" height="14" rx="2" ry="2" fill="none" stroke="#888888" stroke-width="1.5"/>
    <line x1="-4" y1="-2" x2="4" y2="-2" stroke="#888888" stroke-width="1.5"/>
    <line x1="-4" y1="2" x2="4" y2="2" stroke="#888888" stroke-width="1.5"/>
    <circle cx="-4" cy="-2" r="1.5" fill="#888888"/>
    <circle cx="4" cy="2" r="1.5" fill="#888888"/>
  </g>
  
  <!-- Historial -->
  <g transform="translate(825, 35)">
    <circle cx="0" cy="0" r="15" fill="#f5f5f5" stroke="#dddddd" stroke-width="1"/>
    <path d="M0,-7 L0,0 L5,5" stroke="#888888" stroke-width="1.5" fill="none"/>
    <circle cx="0" cy="0" r="7" stroke="#888888" stroke-width="1.5" fill="none"/>
  </g>
  
  <!-- Notificaciones -->
  <g transform="translate(870, 35)">
    <circle cx="0" cy="0" r="15" fill="#f5f5f5" stroke="#dddddd" stroke-width="1"/>
    <path d="M0,-7 L0,-2 M-6,5 L6,5 M-4,-5 C-4,-5 -7,0 -7,5 C-7,5 -7,5 -6,5 M4,-5 C4,-5 7,0 7,5 C7,5 7,5 6,5" stroke="#888888" stroke-width="1.5" fill="none"/>
    <circle cx="0" cy="8" r="2" fill="#888888"/>
    <circle cx="8" cy="-8" r="8" fill="#F5CB57"/>
    <text x="8" y="-5" font-family="Arial, sans-serif" font-size="10" font-weight="bold" fill="#ffffff" text-anchor="middle">2</text>
  </g>
  
  <!-- Ayuda -->
  <g transform="translate(915, 35)">
    <circle cx="0" cy="0" r="15" fill="#F5CB57"/>
    <text x="0" y="5" font-family="Arial, sans-serif" font-size="18" font-weight="bold" fill="#ffffff" text-anchor="middle">?</text>
  </g>

  <!-- Usuario -->
  <g transform="translate(960, 35)">
    <circle cx="0" cy="0" r="15" fill="#f2f2f2" stroke="#dddddd" stroke-width="1"/>
    <text x="30" y="5" font-family="Arial, sans-serif" font-size="12" fill="#333333">Usuario X</text>
    <circle cx="-2" cy="-2" r="7" fill="#6c7680"/>
    <path d="M-2,5 C-8,5 -12,10 -12,15 C-8,13 4,13 8,15 C8,10 4,5 -2,5" fill="#6c7680" transform="scale(0.6)"/>
  </g>
  
  <!-- Selector de centro/unidad de negocio -->
  <rect x="1050" y="20" width="130" height="30" fill="#f5f5f5" stroke="#dddddd" stroke-width="1" rx="5" ry="5"/>
  <text x="1070" y="40" font-family="Arial, sans-serif" font-size="12" fill="#333333">Empresa S.A.</text>
  <polygon points="1160,35 1150,30 1170,30" fill="#666666" transform="scale(0.6) translate(810, 20)"/>
  
  <!-- Barra lateral (menú de navegación) -->
  <rect x="0" y="70" width="200" height="730" fill="#ffffff" stroke="#e0e0e0" stroke-width="1"/>
  
  <!-- Menú lateral - Elementos principales -->
  <!-- Módulo 1 (completado) -->
  <rect x="0" y="70" width="200" height="50" fill="#ffffff"/>
  <text x="20" y="100" font-family="Arial, sans-serif" font-size="13" font-weight="400" fill="#2196f3">1. Datos Base ✓</text>
  <polygon points="180,100 170,95 190,95" fill="#666666" transform="rotate(270, 180, 100)"/>
  
  <!-- Módulo 2 (completado) -->
  <rect x="0" y="120" width="200" height="50" fill="#ffffff"/>
  <text x="20" y="150" font-family="Arial, sans-serif" font-size="13" font-weight="400" fill="#C83E4D">2. Datos GGII ✓</text>
  <polygon points="180,150 170,145 190,145" fill="#666666" transform="rotate(270, 180, 150)"/>
  
  <!-- Módulo 3 (activo - color amarillo) -->
  <rect x="0" y="170" width="200" height="50" fill="#F5CB57" opacity="0.8"/>
  <text x="20" y="200" font-family="Arial, sans-serif" font-size="13" font-weight="400" fill="#ffffff">3. Integración Externa</text>
  <polygon points="180,200 170,195 190,195" fill="#ffffff" transform="rotate(90, 180, 200)"/>
  
  <!-- Submódulos del Módulo 3 desplegados -->
  <rect x="0" y="220" width="200" height="40" fill="#ffffff"/>
  <text x="35" y="245" font-family="Arial, sans-serif" font-size="11" fill="#666666">► Legislación ESG</text>
  
  <rect x="0" y="260" width="200" height="40" fill="#fff9e6"/>
  <text x="35" y="285" font-family="Arial, sans-serif" font-size="11" font-weight="600" fill="#F5CB57">► Bases de Datos ESG</text>
  
  <!-- Módulo 4 -->
  <rect x="0" y="300" width="200" height="50" fill="#ffffff"/>
  <text x="20" y="330" font-family="Arial, sans-serif" font-size="13" font-weight="400" fill="#666666">4. Análisis DM</text>
  <polygon points="180,330 170,325 190,325" fill="#666666" transform="rotate(270, 180, 330)"/>
  
  <!-- Módulo 5 -->
  <rect x="0" y="350" width="200" height="50" fill="#ffffff"/>
  <text x="20" y="380" font-family="Arial, sans-serif" font-size="13" font-weight="400" fill="#666666">5. Datapoints</text>
  <polygon points="180,380 170,375 190,375" fill="#666666" transform="rotate(270, 180, 380)"/>
  
  <!-- Módulo 6 -->
  <rect x="0" y="400" width="200" height="50" fill="#ffffff"/>
  <text x="20" y="430" font-family="Arial, sans-serif" font-size="13" font-weight="400" fill="#666666">6. Reporting</text>
  <polygon points="180,430 170,425 190,425" fill="#666666" transform="rotate(270, 180, 430)"/>
  
  <!-- Panel lateral de actividad reciente -->
  <rect x="0" y="690" width="200" height="110" fill="#f0f0f0"/>
  <text x="15" y="715" font-family="Arial, sans-serif" font-size="11" font-weight="600" fill="#666666">ACTIVIDAD RECIENTE</text>
  <line x1="15" y1="725" x2="185" y2="725" stroke="#dddddd" stroke-width="1"/>
  <text x="15" y="745" font-family="Arial, sans-serif" font-size="9" fill="#666666">M3_I01 completado - Hace 5m</text>
  <text x="15" y="765" font-family="Arial, sans-serif" font-size="9" fill="#666666">M2_I04 completado - Hace 15m</text>
  <text x="15" y="785" font-family="Arial, sans-serif" font-size="9" fill="#666666">M2_I03 completado - Hace 30m</text>
  
  <!-- Contenido principal con margen uniforme -->
  <rect x="200" y="70" width="1000" height="730" fill="#ffffff"/>
  
  <!-- Contenedor principal del contenido -->
  <rect x="220" y="80" width="960" height="680" fill="#ffffff" stroke="#e0e0e0" stroke-width="1" rx="8" ry="8"/>
  
  <!-- Título del módulo con estilo moderno -->
  <rect x="220" y="80" width="960" height="50" fill="#F5CB57" opacity="0.1"/>
  <text x="270" y="115" font-family="Arial, sans-serif" font-size="18" font-weight="600" letter-spacing="0.5" fill="#333333">Módulo 3: Integración Externa</text>
  
  <!-- Pestañas de navegación horizontal -->
  <rect x="220" y="130" width="960" height="35" fill="#f9f9f9" stroke="#e0e0e0" stroke-width="1"/>
  
  <!-- Pestañas principales -->
  <!-- Botón Legislación ESG -->
  <rect x="220" y="130" width="480" height="35" fill="#ffffff"/>
  <text x="340" y="153" font-family="Arial, sans-serif" font-size="13" font-weight="400" fill="#666666" text-anchor="middle">LEGISLACIÓN ESG</text>
  
  <!-- Botón Bases de Datos ESG (activo) -->
  <rect x="700" y="130" width="480" height="35" fill="#F5CB57" opacity="0.1"/>
  <text x="820" y="153" font-family="Arial, sans-serif" font-size="13" font-weight="600" fill="#F5CB57" text-anchor="middle">BASES DE DATOS ESG</text>
  
  <!-- Indicador de fase -->
  <rect x="240" y="175" width="920" height="35" fill="#fff9e6" stroke="#F5CB57" stroke-width="1" rx="8" ry="8" opacity="0.3"/>
  <text x="270" y="198" font-family="Arial, sans-serif" font-size="12" font-weight="600" fill="#F5CB57">M3_I02: Integración de Bases de Datos ESG</text>
  
  <!-- Panel informativo de la sección -->
  <rect x="240" y="220" width="920" height="60" fill="#ffffff" stroke="#e0e0e0" stroke-width="1" rx="5" ry="5"/>
  <text x="270" y="243" font-family="Arial, sans-serif" font-size="11" font-weight="600" fill="#333333">Instrucciones: </text>
  <text x="350" y="243" font-family="Arial, sans-serif" font-size="11" fill="#555555">Configure la conexión con bases de datos externas de información ESG.</text>
  <text x="270" y="263" font-family="Arial, sans-serif" font-size="9" fill="#555555">Esta sección permite la conexión con las bases de datos especializadas en ESG para obtener benchmarks</text>
  <text x="270" y="273" font-family="Arial, sans-serif" font-size="9" fill="#555555">sectoriales, ratios de mercado y tendencias. Seleccione los proveedores disponibles y configure los parámetros.</text>
  
  <!-- Contenedor del área principal -->
  <rect x="240" y="290" width="920" height="350" fill="#ffffff" stroke="#e0e0e0" stroke-width="1" rx="5" ry="5"/>
  
  <!-- Contenido del área principal - Conexión a proveedores -->
  <text x="270" y="320" font-family="Arial, sans-serif" font-size="14" font-weight="600" fill="#F5CB57">Proveedores de Datos ESG</text>
  <text x="270" y="340" font-family="Arial, sans-serif" font-size="10" fill="#555555">Seleccione los proveedores de bases de datos ESG con los que desea conectar la plataforma.</text>
  
  <!-- Proveedor 1: Clarity AI -->
  <rect x="270" y="360" width="425" height="80" fill="#fff9e6" stroke="#e2d9b7" stroke-width="1" rx="5" ry="5"/>
  <rect x="285" y="375" width="20" height="20" fill="#ffffff" stroke="#F5CB57" stroke-width="2" rx="2" ry="2"/>
  <path d="M290 385 L295 390 L305 380" stroke="#F5CB57" stroke-width="2" fill="none"/>
  <text x="320" y="390" font-family="Arial, sans-serif" font-size="13" font-weight="600" fill="#333333">Clarity AI</text>
  <text x="320" y="410" font-family="Arial, sans-serif" font-size="10" fill="#666666">Plataforma de análisis ESG con IA especializada en rating y scoring</text>
  <text x="320" y="425" font-family="Arial, sans-serif" font-size="10" fill="#666666">de inversiones sostenibles con cobertura global.</text>
  <rect x="620" y="375" width="60" height="25" fill="#fff9e6" stroke="#F5CB57" stroke-width="1" rx="3" ry="3"/>
  <text x="650" y="391" font-family="Arial, sans-serif" font-size="10" fill="#F5CB57" text-anchor="middle">Config</text>
  
  <!-- Proveedor 2: MSCI ESG -->
  <rect x="270" y="450" width="425" height="80" fill="#fff9e6" stroke="#e2d9b7" stroke-width="1" rx="5" ry="5"/>
  <rect x="285" y="465" width="20" height="20" fill="#ffffff" stroke="#F5CB57" stroke-width="2" rx="2" ry="2"/>
  <text x="320" y="480" font-family="Arial, sans-serif" font-size="13" font-weight="600" fill="#333333">MSCI ESG Ratings</text>
  <text x="320" y="500" font-family="Arial, sans-serif" font-size="10" fill="#666666">Calificaciones ESG, rankings sectoriales y análisis de riesgos</text>
  <text x="320" y="515" font-family="Arial, sans-serif" font-size="10" fill="#666666">para inversores institucionales y empresas globales.</text>
  <rect x="620" y="465" width="60" height="25" fill="#fff9e6" stroke="#F5CB57" stroke-width="1" rx="3" ry="3"/>
  <text x="650" y="481" font-family="Arial, sans-serif" font-size="10" fill="#F5CB57" text-anchor="middle">Config</text>
  
  <!-- Proveedor 3: Bloomberg ESG -->
  <rect x="270" y="540" width="425" height="80" fill="#fff9e6" stroke="#e2d9b7" stroke-width="1" rx="5" ry="5"/>
  <rect x="285" y="555" width="20" height="20" fill="#ffffff" stroke="#F5CB57" stroke-width="2" rx="2" ry="2"/>
  <text x="320" y="570" font-family="Arial, sans-serif" font-size="13" font-weight="600" fill="#333333">Bloomberg ESG Data</text>
  <text x="320" y="590" font-family="Arial, sans-serif" font-size="10" fill="#666666">Datos ESG verificados, métricas comparativas y análisis sectoriales</text>
  <text x="320" y="605" font-family="Arial, sans-serif" font-size="10" fill="#666666">para reportes financieros y de sostenibilidad.</text>
  <rect x="620" y="555" width="60" height="25" fill="#fff9e6" stroke="#F5CB57" stroke-width="1" rx="3" ry="3"/>
  <text x="650" y="571" font-family="Arial, sans-serif" font-size="10" fill="#F5CB57" text-anchor="middle">Config</text>
  
  <!-- Panel de configuración Clarity AI (visible) -->
  <rect x="710" y="360" width="425" height="260" fill="#fff9e6" stroke="#F5CB57" stroke-width="1" rx="5" ry="5"/>
  <text x="740" y="385" font-family="Arial, sans-serif" font-size="13" font-weight="600" fill="#F5CB57">Configuración de Clarity AI</text>
  
  <!-- Campo 1: API Key -->
  <text x="740" y="415" font-family="Arial, sans-serif" font-size="11" font-weight="600" fill="#333333">API Key*:</text>
  <rect x="740" y="425" width="370" height="30" fill="#ffffff" stroke="#e2d9b7" stroke-width="1" rx="3" ry="3"/>
  <text x="750" y="445" font-family="Arial, sans-serif" font-size="10" fill="#666666">••••••••••••••••••••••••••••••</text>
  <rect x="1075" y="425" width="35" height="30" fill="#fff9e6" stroke="#e2d9b7" stroke-width="1" rx="3" ry="3"/>
  <text x="1093" y="445" font-family="Arial, sans-serif" font-size="14" fill="#F5CB57" text-anchor="middle">⌕</text>
  
  <!-- Campo 2: Usuario -->
  <text x="740" y="475" font-family="Arial, sans-serif" font-size="11" font-weight="600" fill="#333333">Nivel de acceso*:</text>
  <rect x="740" y="485" width="370" height="30" fill="#ffffff" stroke="#e2d9b7" stroke-width="1" rx="3" ry="3"/>
  <text x="750" y="505" font-family="Arial, sans-serif" font-size="10" fill="#666666">Premium - Acceso completo ▼</text>
  
  <!-- Campo 3: Sectores -->
  <text x="740" y="535" font-family="Arial, sans-serif" font-size="11" font-weight="600" fill="#333333">Sectores de interés*:</text>
  <rect x="740" y="545" width="370" height="30" fill="#ffffff" stroke="#e2d9b7" stroke-width="1" rx="3" ry="3"/>
  <text x="750" y="565" font-family="Arial, sans-serif" font-size="10" fill="#666666">Energía, Manufactura, Construcción, Servicios ▼</text>
  
  <!-- Test de conexión -->
  <rect x="740" y="585" width="180" height="30" fill="#F5CB57" stroke="#F5CB57" stroke-width="1" rx="5" ry="5"/>
  <text x="830" y="605" font-family="Arial, sans-serif" font-size="11" font-weight="600" fill="#ffffff" text-anchor="middle">PROBAR CONEXIÓN</text>
  
  <!-- Botones de navegación (fijo en la parte inferior) -->
  <rect x="240" y="650" width="920" height="40" fill="#f5f5f5" stroke="#dddddd" stroke-width="1" rx="5" ry="5"/>
  
  <!-- Botones alineados -->
  <rect x="270" y="657" width="120" height="25" fill="#F5CB57" rx="4" ry="4"/>
  <text x="330" y="673" font-family="Arial, sans-serif" font-size="11" fill="#ffffff" font-weight="500" text-anchor="middle">SINCRONIZAR</text>
  
  <rect x="400" y="657" width="140" height="25" fill="#f5f5f5" stroke="#F5CB57" stroke-width="1" rx="4" ry="4"/>
  <text x="470" y="673" font-family="Arial, sans-serif" font-size="11" fill="#F5CB57" font-weight="500" text-anchor="middle">Ver benchmarks</text>
  
  <rect x="770" y="657" width="100" height="25" fill="#F5CB57" stroke="#F5CB57" stroke-width="1" rx="4" ry="4"/>
  <text x="820" y="673" font-family="Arial, sans-serif" font-size="11" fill="#333333" text-anchor="middle">Anterior</text>
  
  <rect x="880" y="657" width="100" height="25" fill="#129953" stroke="#129953" stroke-width="1" rx="4" ry="4"/>
  <text x="930" y="673" font-family="Arial, sans-serif" font-size="11" fill="#ffffff" text-anchor="middle">Guardar</text>
  
  <rect x="990" y="657" width="150" height="25" fill="#F5CB57" rx="4" ry="4"/>
  <text x="1065" y="673" font-family="Arial, sans-serif" font-size="11" fill="#ffffff" font-weight="500" text-anchor="middle">Siguiente: Módulo 4</text>
  
  <!-- Indicador de progreso -->
  <rect x="240" y="700" width="920" height="5" fill="#eeeeee" rx="2.5" ry="2.5"/>
  <rect x="240" y="700" width="920" height="5" fill="#F5CB57" rx="2.5" ry="2.5"/>
  <text x="240" y="715" font-family="Arial, sans-serif" font-size="10" fill="#666666">2/2 pasos completados</text>
  <text x="1120" y="715" font-family="Arial, sans-serif" font-size="10" fill="#666666" text-anchor="end">Siguiente: Análisis de Doble Materialidad (Módulo 4)</text>
  
  <!-- Pie de página -->
  <rect x="0" y="770" width="1200" height="30" fill="#f5f5f5"/>
  <text x="50" y="790" font-family="Arial, sans-serif" font-size="9" fill="#666666">© 2025 ESG Digital Tool | Términos de uso | Privacidad | Contacto</text>
  <text x="1150" y="790" font-family="Arial, sans-serif" font-size="9" fill="#666666" text-anchor="end">Versión 1.2.4</text>
</svg>